<svg xmlns="http://www.w3.org/2000/svg" width="300" height="300" viewBox="0 0 340 340" fill="none" stroke="#64748b" stroke-width="2" stroke-linecap="round" stroke-linejoin="round">
  <!-- cloud -->
  <g transform="translate(18,28) scale(1.4)">
    <path d="M17.5 19H9a7 7 0 1 1 6.71-9h1.79a4.5 4.5 0 1 1 0 9Z"/>
  </g>
  <!-- container / box -->
  <g transform="translate(210,18) scale(1.3)">
    <path d="M21 8a2 2 0 0 0-1-1.73l-7-4a2 2 0 0 0-2 0l-7 4A2 2 0 0 0 3 8v8a2 2 0 0 0 1 1.73l7 4a2 2 0 0 0 2 0l7-4A2 2 0 0 0 21 16Z"/>
    <path d="m3.3 7 8.7 5 8.7-5"/>
    <path d="M12 22V12"/>
  </g>
  <!-- gear / config -->
  <g transform="translate(118,116) scale(1.5)">
    <circle cx="12" cy="12" r="3"/>
    <path d="M19.4 15a1.65 1.65 0 0 0 .33 1.82l.06.06a2 2 0 1 1-2.83 2.83l-.06-.06a1.65 1.65 0 0 0-1.82-.33 1.65 1.65 0 0 0-1 1.51V21a2 2 0 0 1-4 0v-.09A1.65 1.65 0 0 0 9 19.4a1.65 1.65 0 0 0-1.82.33l-.06.06a2 2 0 1 1-2.83-2.83l.06-.06a1.65 1.65 0 0 0 .33-1.82 1.65 1.65 0 0 0-1.51-1H3a2 2 0 0 1 0-4h.09A1.65 1.65 0 0 0 4.6 9a1.65 1.65 0 0 0-.33-1.82l-.06-.06a2 2 0 1 1 2.83-2.83l.06.06a1.65 1.65 0 0 0 1.82.33H9a1.65 1.65 0 0 0 1-1.51V3a2 2 0 0 1 4 0v.09a1.65 1.65 0 0 0 1 1.51 1.65 1.65 0 0 0 1.82-.33l.06-.06a2 2 0 1 1 2.83 2.83l-.06.06a1.65 1.65 0 0 0-.33 1.82V9a1.65 1.65 0 0 0 1.51 1H21a2 2 0 0 1 0 4h-.09a1.65 1.65 0 0 0-1.51 1Z"/>
  </g>
  <!-- git branch -->
  <g transform="translate(268,150) scale(1.3)">
    <line x1="6" y1="3" x2="6" y2="15"/>
    <circle cx="18" cy="6" r="3"/>
    <circle cx="6" cy="18" r="3"/>
    <path d="M18 9a9 9 0 0 1-9 9"/>
  </g>
  <!-- terminal -->
  <g transform="translate(30,180) scale(1.3)">
    <polyline points="4 17 10 11 4 5"/>
    <line x1="12" y1="19" x2="20" y2="19"/>
  </g>
  <!-- CI/CD infinity -->
  <g transform="translate(168,232) scale(1.3)">
    <path d="M12 12c-2-2.67-4-4-6-4a4 4 0 1 0 0 8c2 0 4-1.33 6-4Zm0 0c2 2.67 4 4 6 4a4 4 0 0 0 0-8c-2 0-4 1.33-6 4Z"/>
  </g>
  <!-- server -->
  <g transform="translate(28,266) scale(1.3)">
    <rect x="2" y="2" width="20" height="8" rx="2"/>
    <rect x="2" y="14" width="20" height="8" rx="2"/>
    <line x1="6" y1="6" x2="6.01" y2="6"/>
    <line x1="6" y1="18" x2="6.01" y2="18"/>
  </g>
  <!-- activity / metrics -->
  <g transform="translate(258,268) scale(1.3)">
    <path d="M22 12h-4l-3 9L9 3l-3 9H2"/>
  </g>
</svg>
